<svg id="Iconly_Bulk_Arrow_-_Right" data-name="Iconly/Bulk/Arrow - Right" xmlns="http://www.w3.org/2000/svg" width="30" height="30" viewBox="0 0 30 30">
  <g id="Arrow_-_Right" data-name="Arrow - Right" transform="translate(3.75 22.5) rotate(-90)">
    <path id="Fill_1" data-name="Fill 1" d="M.409,6.5,0,1.879a1.9,1.9,0,0,1,3.795,0L3.386,6.5a1.489,1.489,0,0,1-2.977,0" transform="translate(5.603)" fill="#fff" opacity="0.4"/>
    <path id="Fill_4" data-name="Fill 4" d="M6.087,12.237c-.073-.072-.381-.342-.638-.6A27.591,27.591,0,0,1,.42,4.278,6.035,6.035,0,0,1,0,2.779,2.5,2.5,0,0,1,.274,1.642,2.357,2.357,0,0,1,1.4.631,12.237,12.237,0,0,1,2.735.305,29.545,29.545,0,0,1,7.492,0,34.114,34.114,0,0,1,12.1.27,10.324,10.324,0,0,1,13.761.7a2.268,2.268,0,0,1,1.239,2v.072a6.289,6.289,0,0,1-.509,1.679,27.555,27.555,0,0,1-4.958,7.2,7.116,7.116,0,0,1-.693.614,2.21,2.21,0,0,1-1.33.434,2.32,2.32,0,0,1-1.422-.469" transform="translate(0 9.794)" fill="#fff"/>
  </g>
</svg>
