<svg id="Iconly_Bulk_Arrow_-_Right_3" data-name="Iconly/Bulk/Arrow - Right 3" xmlns="http://www.w3.org/2000/svg" xmlns:xlink="http://www.w3.org/1999/xlink" width="24" height="24" viewBox="0 0 24 24">
  <defs>
    <clipPath id="clip-path">
      <path id="Clip_4" data-name="Clip 4" d="M0,0H10.9V8.939H0Z" transform="translate(0 0.534)" fill="none"/>
    </clipPath>
  </defs>
  <g id="Arrow_-_Right_3" data-name="Arrow - Right 3" transform="translate(3 17.5) rotate(-90)">
    <path id="Fill_1" data-name="Fill 1" d="M1.421.711V9.189A.711.711,0,1,1,0,9.189V.711a.711.711,0,0,1,1.421,0" transform="translate(4.738 0)" fill="#200e32" opacity="0.4"/>
    <g id="Group_5" data-name="Group 5" transform="translate(0 7.944)">
      <path id="Clip_4-2" data-name="Clip 4" d="M0,0H10.9V8.939H0Z" transform="translate(0 0.534)" fill="none"/>
      <g id="Group_5-2" data-name="Group 5" clip-path="url(#clip-path)">
        <path id="Fill_3" data-name="Fill 3" d="M10.9.711a.715.715,0,0,1-.109.379L6.05,8.608a.71.71,0,0,1-1.2,0L.109,1.089A.712.712,0,0,1,.711,0h9.476A.713.713,0,0,1,10.9.711" transform="translate(0 0.534)" fill="#200e32"/>
      </g>
    </g>
  </g>
</svg>
