<svg id="Iconly_Bulk_Activity" data-name="Iconly/Bulk/Activity" xmlns="http://www.w3.org/2000/svg" width="54.191" height="54.191" viewBox="0 0 54.191 54.191">
  <g id="Activity">
    <path id="Path_34168" d="M34.309,48.772H14.485c-4.474,0-8.162-1.323-10.665-3.825S0,38.769,0,34.306V14.512C0,10.046,1.321,6.359,3.821,3.848S10.014,0,14.485,0H36.072a10.592,10.592,0,0,0-.19,2A10.917,10.917,0,0,0,46.794,12.9a11.222,11.222,0,0,0,1.978-.19v21.6c0,4.461-1.32,8.141-3.818,10.641S38.773,48.772,34.309,48.772ZM19.568,19.182a2.038,2.038,0,0,0-.267.018,2.007,2.007,0,0,0-1.336.785L9.959,30.309a1.974,1.974,0,0,0-.429,1.239,2,2,0,0,0,3.694,1.166l6.694-8.662,7.433,5.831a2.023,2.023,0,0,0,1.258.442,2.007,2.007,0,0,0,1.6-.8l7.743-9.991v-.049a2.032,2.032,0,0,0-.38-2.831,1.978,1.978,0,0,0-2.812.4l-6.528,8.4L20.8,19.6A2.01,2.01,0,0,0,19.568,19.182Z" transform="translate(0 5.419)" fill="#a3875e"/>
    <circle id="Ellipse_742" cx="6.774" cy="6.774" r="6.774" transform="translate(40.643)" fill="#a3875e" opacity="0.4"/>
  </g>
</svg>
