<svg id="Iconly_Bulk_Notification" data-name="Iconly/Bulk/Notification" xmlns="http://www.w3.org/2000/svg" width="40.092" height="47.167" viewBox="0 0 40.092 47.167">
  <g id="Notification">
    <path id="Fill_1" data-name="Fill 1" d="M38.369,22.747a9.161,9.161,0,0,1-2.506-6.717V15.023a13.079,13.079,0,0,0-2.82-8.833A16.606,16.606,0,0,0,20.15,0h-.209A16.676,16.676,0,0,0,7.257,5.926a13.262,13.262,0,0,0-3.028,9.1V16.03a8.957,8.957,0,0,1-2.506,6.717A7.931,7.931,0,0,0,0,28.2,8.51,8.51,0,0,0,2.037,33.8a10.688,10.688,0,0,0,6.839,3.332,98.215,98.215,0,0,0,11.171.582c3.757,0,7.463-.266,11.171-.582A10.688,10.688,0,0,0,38.055,33.8,8.522,8.522,0,0,0,40.092,28.2a7.931,7.931,0,0,0-1.723-5.449" transform="translate(0 0)" fill="#a3875e"/>
    <path id="Fill_4" data-name="Fill 4" d="M11.64.189A60.366,60.366,0,0,0,2.1.189C1.09.422,0,.963,0,2.151A3.656,3.656,0,0,0,1.641,4.918l0,0A8.573,8.573,0,0,0,5.682,6.647a9.047,9.047,0,0,0,2.377,0A8.575,8.575,0,0,0,12.1,4.92l0,0a3.656,3.656,0,0,0,1.641-2.767c0-1.188-1.09-1.729-2.1-1.962" transform="translate(13.143 40.442)" fill="#a3875e" opacity="0.4"/>
  </g>
</svg>
