<svg id="Iconly_Bold_Shield_Done" data-name="Iconly/Bold/Shield Done" xmlns="http://www.w3.org/2000/svg" width="43.209" height="50.833" viewBox="0 0 43.209 50.833">
  <g id="Shield_Done" data-name="Shield Done" transform="translate(0 0)">
    <path id="Shield_Done-2" data-name="Shield Done" d="M21.811,50.833a1.928,1.928,0,0,1-.9-.22L11.76,45.878a21.5,21.5,0,0,1-6.217-4.618A20.969,20.969,0,0,1,.108,27.347L0,10.481A4.607,4.607,0,0,1,3.122,6.133L19.929.27A4.8,4.8,0,0,1,23.056.254l16.87,5.659a4.6,4.6,0,0,1,3.175,4.31L43.209,27.1a20.947,20.947,0,0,1-5.25,13.967A21.471,21.471,0,0,1,31.8,45.757L22.735,50.6a2,2,0,0,1-.91.229Zm-6.817-27.94a1.942,1.942,0,0,0-1.369.556,1.834,1.834,0,0,0,.018,2.642l4.87,4.685a1.926,1.926,0,0,0,1.343.54h.018a1.935,1.935,0,0,0,1.354-.556l9.909-9.77a1.834,1.834,0,0,0-.016-2.642,1.955,1.955,0,0,0-2.713.014L19.846,26.8,16.34,23.431A1.933,1.933,0,0,0,14.993,22.892Z" transform="translate(0)" fill="#a3875e"/>
  </g>
</svg>
