<svg id="Iconly_Bulk_Paper" data-name="Iconly/Bulk/Paper" xmlns="http://www.w3.org/2000/svg" width="87" height="87" viewBox="0 0 87 87">
  <g id="Paper" transform="translate(12.688 7.25)">
    <path id="Fill_3" data-name="Fill 3" d="M55.494,25.451c-1.637,0-3.8-.036-6.5-.036A12.094,12.094,0,0,1,37,13.322V1.664A1.652,1.652,0,0,0,35.355,0H16.181A16.273,16.273,0,0,0,0,16.345V55.4A17.01,17.01,0,0,0,16.927,72.5H45.48A16.224,16.224,0,0,0,61.625,56.195V27.082a1.642,1.642,0,0,0-1.64-1.66c-1.533.011-3.37.029-4.49.029" fill="#23233a" opacity="0.4"/>
    <path id="Fill_1" data-name="Fill 1" d="M2.976.534A1.73,1.73,0,0,0,0,1.745V11.3a7.346,7.346,0,0,0,7.312,7.308c2.527.029,6.036.036,9.015.029a1.728,1.728,0,0,0,1.243-2.929C13.746,11.736,6.9,4.609,2.976.534" transform="translate(42.641 1.522)" fill="#23233a" opacity="0.4"/>
    <path id="Combined_Shape" data-name="Combined Shape" d="M2.7,23.5a2.7,2.7,0,0,1,0-5.4H22.433a2.7,2.7,0,0,1,0,5.4ZM2.7,5.4A2.7,2.7,0,1,1,2.7,0h12.27a2.7,2.7,0,1,1,0,5.4Z" transform="translate(17.146 28.632)" fill="#23233a"/>
  </g>
</svg>
